<?xml version="1.0" encoding="utf-8"?>
<!-- Generator: Adobe Illustrator 22.1.0, SVG Export Plug-In . SVG Version: 6.00 Build 0)  -->
<svg version="1.1" id="Layer_1" xmlns="http://www.w3.org/2000/svg" xmlns:xlink="http://www.w3.org/1999/xlink" x="0px" y="0px"
	 viewBox="0 0 800 200" style="enable-background:new 0 0 800 200;" xml:space="preserve">
<style type="text/css">
	.st0{fill:#FFA500;}
	.st1{fill:#FFFFFF;}
	.st2{fill:#FFA500;stroke:#FFFFFF;stroke-width:10;stroke-miterlimit:10;}
</style>
<ellipse class="st0" cx="743" cy="42.5" rx="140" ry="140.5"/>
<path class="st1" d="M629.1,54.8l-45.5,33c-3.1,2.3-3.8,6.7-1.6,9.8v0c2.3,3.1,6.7,3.8,9.8,1.6l45.5-33c3.1-2.3,3.8-6.7,1.6-9.8v0
	C636.6,53.2,632.2,52.5,629.1,54.8z"/>
<path class="st1" d="M638.1,35.8l-45.5,33c-3.1,2.3-3.8,6.7-1.6,9.8v0c2.3,3.1,6.7,3.8,9.8,1.6l45.5-33c3.1-2.3,3.8-6.7,1.6-9.8v0
	C645.6,34.2,641.2,33.5,638.1,35.8z"/>
<path class="st1" d="M709.1,133.8l-45.5,33c-3.1,2.3-3.8,6.7-1.6,9.8l0,0c2.3,3.1,6.7,3.8,9.8,1.6l45.5-33c3.1-2.3,3.8-6.7,1.6-9.8
	v0C716.6,132.2,712.2,131.5,709.1,133.8z"/>
<path class="st1" d="M727.6,119.8L727.6,119.8c-3.1,2.3-3.8,6.7-1.6,9.8l0,0c2.3,3.1,6.7,3.8,9.8,1.6l0,0c3.1-2.3,3.8-6.7,1.6-9.8v0
	C735.1,118.3,730.7,117.6,727.6,119.8z"/>
<path class="st0" d="M646.1,77.8l-45.5,33c-3.1,2.3-3.8,6.7-1.6,9.8v0c2.3,3.1,6.7,3.8,9.8,1.6l45.5-33c3.1-2.3,3.8-6.7,1.6-9.8v0
	C653.6,76.2,649.2,75.5,646.1,77.8z"/>
<path class="st0" d="M648.2,87.7l-34.5,25.1c-3.1,2.3-3.8,6.7-1.6,9.8v0c2.3,3.1,6.7,3.8,9.8,1.6l34.5-25.1c3.1-2.3,3.8-6.7,1.6-9.8
	v0C655.7,86.2,651.3,85.5,648.2,87.7z"/>
<circle class="st2" cx="714.5" cy="24.5" r="24.5"/>
<circle class="st2" cx="782" cy="69" r="50"/>
<circle class="st2" cx="643.5" cy="137.5" r="12.5"/>
<path class="st1" d="M777.6,36.8L777.6,36.8c-3.1,2.3-3.8,6.7-1.6,9.8v0c2.3,3.1,6.7,3.8,9.8,1.6l0,0c3.1-2.3,3.8-6.7,1.6-9.8v0
	C785.1,35.3,780.7,34.6,777.6,36.8z"/>
<path class="st1" d="M777.6,63.8L777.6,63.8c-3.1,2.3-3.8,6.7-1.6,9.8v0c2.3,3.1,6.7,3.8,9.8,1.6l0,0c3.1-2.3,3.8-6.7,1.6-9.8v0
	C785.1,62.3,780.7,61.6,777.6,63.8z"/>
</svg>
